<svg xmlns="http://www.w3.org/2000/svg" viewBox="0 0 412 640.8"><style>.st0{fill:#f9f6ef}.st2{fill:#f7969b}.st3,.st4{fill:none}.st4{stroke:#f7969b;stroke-width:3}</style><g id="CALL_TO_ACTION" transform="translate(-1244 -2635)"><g id="Rectangle_8"><path class="st0" d="M0 0h398v598H0z" transform="translate(1244 2663.844)"/><path fill="none" stroke="#f7969b" stroke-width="2" d="M1245 2664.844h396v596h-396z"/></g><g id="Tracé_33"><path class="st0" d="M397 597H1V1h396v596z" transform="translate(1251 2670.844)"/><path class="st2" d="M2 2v594h394V2H2M0 0h398v598H0V0z" transform="translate(1251 2670.844)"/></g><g id="Tracé_32"><path class="st0" d="M397 597H1V1h396v596z" transform="translate(1258 2677.844)"/><path class="st2" d="M2 2v594h394V2H2M0 0h398v598H0V0z" transform="translate(1258 2677.844)"/></g><g id="Groupe_11" transform="translate(-30.25)"><g id="Ellipse_1" transform="translate(1305 2635)"><ellipse class="st3" cx="13.6" cy="43.9" rx="13.6" ry="43.9"/><ellipse class="st4" cx="13.6" cy="43.9" rx="12.1" ry="42.4"/></g><g id="Tracé_19"><path class="st3" d="M13.6 0c7.5 0 13.6 22 13.6 43.9s-6.1 43.9-13.6 43.9S0 68.2 0 43.9 6.1 0 13.6 0z" transform="translate(1311.5 2635)"/><path class="st2" d="M13.7 3c-.8 0-1.9.8-2.9 2.2-1.5 1.9-2.8 4.9-3.9 8.6-1.2 3.8-2.2 8.4-2.9 13.4-.7 5.3-1 10.9-1 16.7s.4 11.4 1 16.7c.7 5.1 1.6 9.6 2.8 13.5 1.1 3.7 2.5 6.6 3.9 8.5 1 1.4 2.1 2.2 2.9 2.2.6 0 1.6-.6 2.8-2.5 1.4-2.1 2.8-5.2 3.9-9.1 2.5-8.2 3.9-18.9 3.9-29.3 0-10.4-1.4-21.1-3.9-29.3-1.2-3.9-2.5-7-3.9-9.1C15.2 3.6 14.2 3 13.7 3m0-3c7.5 0 13.7 22 13.7 43.9s-6.1 43.9-13.7 43.9S0 68.2 0 43.9 6.1 0 13.7 0z" transform="translate(1311.5 2635)"/></g><g id="Ellipse_3" transform="translate(1350.068 2635)"><ellipse class="st3" cx="13.6" cy="43.9" rx="13.6" ry="43.9"/><ellipse class="st4" cx="13.6" cy="43.9" rx="12.1" ry="42.4"/></g><g id="Ellipse_4" transform="translate(1356.568 2635)"><ellipse class="st3" cx="13.6" cy="43.9" rx="13.6" ry="43.9"/><ellipse class="st4" cx="13.6" cy="43.9" rx="12.1" ry="42.4"/></g><g id="Ellipse_5" transform="translate(1395.135 2635)"><ellipse class="st3" cx="13.6" cy="43.9" rx="13.6" ry="43.9"/><ellipse class="st4" cx="13.6" cy="43.9" rx="12.1" ry="42.4"/></g><g id="Ellipse_6" transform="translate(1401.635 2635)"><ellipse class="st3" cx="13.6" cy="43.9" rx="13.6" ry="43.9"/><ellipse class="st4" cx="13.6" cy="43.9" rx="12.1" ry="42.4"/></g><g id="Ellipse_7" transform="translate(1440.203 2635)"><ellipse class="st3" cx="13.6" cy="43.9" rx="13.6" ry="43.9"/><ellipse class="st4" cx="13.6" cy="43.9" rx="12.1" ry="42.4"/></g><g id="Ellipse_8" transform="translate(1446.703 2635)"><ellipse class="st3" cx="13.6" cy="43.9" rx="13.6" ry="43.9"/><ellipse class="st4" cx="13.6" cy="43.9" rx="12.1" ry="42.4"/></g><g id="Ellipse_9" transform="translate(1485.27 2635)"><ellipse class="st3" cx="13.6" cy="43.9" rx="13.6" ry="43.9"/><ellipse class="st4" cx="13.6" cy="43.9" rx="12.1" ry="42.4"/></g><g id="Ellipse_10" transform="translate(1491.77 2635)"><ellipse class="st3" cx="13.6" cy="43.9" rx="13.6" ry="43.9"/><ellipse class="st4" cx="13.6" cy="43.9" rx="12.1" ry="42.4"/></g><g id="Ellipse_11" transform="translate(1530.338 2635)"><ellipse class="st3" cx="13.6" cy="43.9" rx="13.6" ry="43.9"/><ellipse class="st4" cx="13.6" cy="43.9" rx="12.1" ry="42.4"/></g><g id="Ellipse_12" transform="translate(1536.838 2635)"><ellipse class="st3" cx="13.6" cy="43.9" rx="13.6" ry="43.9"/><ellipse class="st4" cx="13.6" cy="43.9" rx="12.1" ry="42.4"/></g><g id="Ellipse_13" transform="translate(1575.405 2635)"><ellipse class="st3" cx="13.6" cy="43.9" rx="13.6" ry="43.9"/><ellipse class="st4" cx="13.6" cy="43.9" rx="12.1" ry="42.4"/></g><g id="Ellipse_14" transform="translate(1581.905 2635)"><ellipse class="st3" cx="13.6" cy="43.9" rx="13.6" ry="43.9"/><ellipse class="st4" cx="13.6" cy="43.9" rx="12.1" ry="42.4"/></g><g id="Ellipse_15" transform="translate(1620.473 2635)"><ellipse class="st3" cx="13.6" cy="43.9" rx="13.6" ry="43.9"/><ellipse class="st4" cx="13.6" cy="43.9" rx="12.1" ry="42.4"/></g><g id="Ellipse_16" transform="translate(1626.973 2635)"><ellipse class="st3" cx="13.6" cy="43.9" rx="13.6" ry="43.9"/><ellipse class="st4" cx="13.6" cy="43.9" rx="12.1" ry="42.4"/></g><g id="Ellipse_17" transform="translate(1620.473 2635)"><ellipse class="st3" cx="13.6" cy="43.9" rx="13.6" ry="43.9"/><ellipse class="st4" cx="13.6" cy="43.9" rx="12.1" ry="42.4"/></g><g id="Ellipse_18" transform="translate(1626.973 2635)"><ellipse class="st3" cx="13.6" cy="43.9" rx="13.6" ry="43.9"/><ellipse class="st4" cx="13.6" cy="43.9" rx="12.1" ry="42.4"/></g></g></g></svg>